<svg viewBox="0 0 720 420" xmlns="http://www.w3.org/2000/svg" style="width:100%;border-radius:16px;" role="img" aria-label="AlphaFold: from amino acid sequence to 3D protein structure">
  <defs>
    <radialGradient id="af-bg" cx="50%" cy="40%" r="70%">
      <stop offset="0%" stop-color="#0f1a2e" stop-opacity="1"/>
      <stop offset="100%" stop-color="#060c16" stop-opacity="1"/>
    </radialGradient>
    <radialGradient id="af-glow1" cx="30%" cy="50%" r="60%">
      <stop offset="0%" stop-color="#c43d62" stop-opacity="0.18"/>
      <stop offset="100%" stop-color="#c43d62" stop-opacity="0"/>
    </radialGradient>
    <radialGradient id="af-glow2" cx="70%" cy="50%" r="60%">
      <stop offset="0%" stop-color="#5b6cff" stop-opacity="0.18"/>
      <stop offset="100%" stop-color="#5b6cff" stop-opacity="0"/>
    </radialGradient>
    <filter id="af-blur">
      <feGaussianBlur stdDeviation="3" result="blur"/>
      <feMerge><feMergeNode in="blur"/><feMergeNode in="SourceGraphic"/></feMerge>
    </filter>
    <filter id="af-glow-soft">
      <feGaussianBlur stdDeviation="5" result="blur"/>
      <feMerge><feMergeNode in="blur"/><feMergeNode in="SourceGraphic"/></feMerge>
    </filter>
    <marker id="af-arr" markerWidth="7" markerHeight="6" refX="6" refY="3" orient="auto">
      <path d="M0,0 L7,3 L0,6 Z" fill="#94a3b8"/>
    </marker>
    <marker id="af-arr-pink" markerWidth="7" markerHeight="6" refX="6" refY="3" orient="auto">
      <path d="M0,0 L7,3 L0,6 Z" fill="#c43d62"/>
    </marker>
    <linearGradient id="conf-grad" x1="0" x2="1" y1="0" y2="0">
      <stop offset="0%" stop-color="#ef4444"/>
      <stop offset="40%" stop-color="#f59e0b"/>
      <stop offset="70%" stop-color="#3b82f6"/>
      <stop offset="100%" stop-color="#22c55e"/>
    </linearGradient>
  </defs>

  <!-- Background -->
  <rect width="720" height="420" fill="url(#af-bg)" rx="16"/>
  <rect width="720" height="420" fill="url(#af-glow1)" rx="16"/>
  <rect width="720" height="420" fill="url(#af-glow2)" rx="16"/>

  <!-- Title -->
  <text x="360" y="34" text-anchor="middle" font-family="system-ui,-apple-system,sans-serif" font-size="15" fill="#f1f5f9" font-weight="700" letter-spacing="-0.3">AlphaFold: Solving Biology's 50-Year Grand Challenge</text>
  <text x="360" y="53" text-anchor="middle" font-family="system-ui,-apple-system,sans-serif" font-size="10.5" fill="#475569">From amino acid sequence → 3D protein structure · DeepMind / Google</text>

  <!-- LEFT PANEL: Amino Acid Sequence -->
  <rect x="30" y="72" width="190" height="290" rx="12" fill="rgba(255,255,255,0.03)" stroke="#1e293b" stroke-width="1.2"/>
  <text x="125" y="97" text-anchor="middle" font-family="system-ui,sans-serif" font-size="11" fill="#94a3b8" font-weight="600" letter-spacing="0.08em">INPUT</text>
  <text x="125" y="113" text-anchor="middle" font-family="system-ui,sans-serif" font-size="12.5" fill="#e2e8f0" font-weight="700">Amino Acid Sequence</text>

  <g transform="translate(48, 130)">
    <circle cx="0"   cy="0" r="11" fill="#c43d62" opacity="0.9" filter="url(#af-blur)"/>
    <text x="0"  y="4" text-anchor="middle" font-family="monospace" font-size="9" fill="white" font-weight="700">Met</text>
    <circle cx="28"  cy="0" r="11" fill="#5b6cff" opacity="0.85" filter="url(#af-blur)"/>
    <text x="28" y="4" text-anchor="middle" font-family="monospace" font-size="9" fill="white" font-weight="700">Ala</text>
    <circle cx="56"  cy="0" r="11" fill="#26c2c9" opacity="0.85" filter="url(#af-blur)"/>
    <text x="56" y="4" text-anchor="middle" font-family="monospace" font-size="9" fill="white" font-weight="700">Gly</text>
    <circle cx="84"  cy="0" r="11" fill="#a387ff" opacity="0.85" filter="url(#af-blur)"/>
    <text x="84" y="4" text-anchor="middle" font-family="monospace" font-size="9" fill="white" font-weight="700">Leu</text>
    <circle cx="112" cy="0" r="11" fill="#2fbf7c" opacity="0.85" filter="url(#af-blur)"/>
    <text x="112" y="4" text-anchor="middle" font-family="monospace" font-size="9" fill="white" font-weight="700">Val</text>
    <line x1="11" y1="0" x2="17" y2="0" stroke="#334155" stroke-width="1.5"/>
    <line x1="39" y1="0" x2="45" y2="0" stroke="#334155" stroke-width="1.5"/>
    <line x1="67" y1="0" x2="73" y2="0" stroke="#334155" stroke-width="1.5"/>
    <line x1="95" y1="0" x2="101" y2="0" stroke="#334155" stroke-width="1.5"/>

    <circle cx="0"   cy="32" r="11" fill="#d4a23a" opacity="0.85" filter="url(#af-blur)"/>
    <text x="0"  y="36" text-anchor="middle" font-family="monospace" font-size="9" fill="white" font-weight="700">Ser</text>
    <circle cx="28"  cy="32" r="11" fill="#c43d62" opacity="0.75" filter="url(#af-blur)"/>
    <text x="28" y="36" text-anchor="middle" font-family="monospace" font-size="9" fill="white" font-weight="700">Thr</text>
    <circle cx="56"  cy="32" r="11" fill="#5b6cff" opacity="0.8" filter="url(#af-blur)"/>
    <text x="56" y="36" text-anchor="middle" font-family="monospace" font-size="9" fill="white" font-weight="700">Pro</text>
    <circle cx="84"  cy="32" r="11" fill="#26c2c9" opacity="0.8" filter="url(#af-blur)"/>
    <text x="84" y="36" text-anchor="middle" font-family="monospace" font-size="9" fill="white" font-weight="700">Asp</text>
    <circle cx="112" cy="32" r="11" fill="#a387ff" opacity="0.8" filter="url(#af-blur)"/>
    <text x="112" y="36" text-anchor="middle" font-family="monospace" font-size="9" fill="white" font-weight="700">Glu</text>
    <line x1="11" y1="32" x2="17" y2="32" stroke="#334155" stroke-width="1.5"/>
    <line x1="39" y1="32" x2="45" y2="32" stroke="#334155" stroke-width="1.5"/>
    <line x1="67" y1="32" x2="73" y2="32" stroke="#334155" stroke-width="1.5"/>
    <line x1="95" y1="32" x2="101" y2="32" stroke="#334155" stroke-width="1.5"/>

    <circle cx="0"   cy="64" r="11" fill="#2fbf7c" opacity="0.8"/>
    <text x="0"  y="68" text-anchor="middle" font-family="monospace" font-size="9" fill="white" font-weight="700">Arg</text>
    <circle cx="28"  cy="64" r="11" fill="#d4a23a" opacity="0.8"/>
    <text x="28" y="68" text-anchor="middle" font-family="monospace" font-size="9" fill="white" font-weight="700">Lys</text>
    <circle cx="56"  cy="64" r="11" fill="#c43d62" opacity="0.75"/>
    <text x="56" y="68" text-anchor="middle" font-family="monospace" font-size="9" fill="white" font-weight="700">His</text>
    <circle cx="84"  cy="64" r="11" fill="#5b6cff" opacity="0.75"/>
    <text x="84" y="68" text-anchor="middle" font-family="monospace" font-size="9" fill="white" font-weight="700">Phe</text>
    <circle cx="112" cy="64" r="11" fill="#26c2c9" opacity="0.75"/>
    <text x="112" y="68" text-anchor="middle" font-family="monospace" font-size="9" fill="white" font-weight="700">Trp</text>
    <line x1="11" y1="64" x2="17" y2="64" stroke="#334155" stroke-width="1.5"/>
    <line x1="39" y1="64" x2="45" y2="64" stroke="#334155" stroke-width="1.5"/>
    <line x1="67" y1="64" x2="73" y2="64" stroke="#334155" stroke-width="1.5"/>
    <line x1="95" y1="64" x2="101" y2="64" stroke="#334155" stroke-width="1.5"/>

    <circle cx="14"  cy="100" r="3" fill="#334155"/>
    <circle cx="56"  cy="100" r="3" fill="#334155"/>
    <circle cx="98"  cy="100" r="3" fill="#334155"/>
  </g>

  <text x="125" y="310" text-anchor="middle" font-family="monospace" font-size="10" fill="#475569">20 amino acid types</text>
  <text x="125" y="325" text-anchor="middle" font-family="monospace" font-size="10" fill="#475569">100s–1000s of residues</text>
  <rect x="55" y="335" width="140" height="18" rx="4" fill="rgba(196,61,98,0.12)" stroke="#c43d62" stroke-width="0.8"/>
  <text x="125" y="348" text-anchor="middle" font-family="system-ui,sans-serif" font-size="9.5" fill="#c43d62" font-weight="600">Grand Challenge · 1972–2020</text>

  <!-- CENTER: AlphaFold Neural Network -->
  <rect x="255" y="72" width="210" height="290" rx="12" fill="rgba(91,108,255,0.07)" stroke="#5b6cff" stroke-width="1.2" opacity="0.8"/>
  <text x="360" y="97" text-anchor="middle" font-family="system-ui,sans-serif" font-size="11" fill="#818cf8" font-weight="600" letter-spacing="0.08em">ALPHAFOLD 2 / 3</text>
  <text x="360" y="113" text-anchor="middle" font-family="system-ui,sans-serif" font-size="12.5" fill="#e2e8f0" font-weight="700">Deep Learning Engine</text>

  <g transform="translate(275, 130)">
    <rect x="10" y="0" width="170" height="32" rx="6" fill="rgba(91,108,255,0.2)" stroke="#5b6cff" stroke-width="0.8"/>
    <text x="95" y="12" text-anchor="middle" font-family="system-ui,sans-serif" font-size="9.5" fill="#a5b4fc" font-weight="600">Multiple Sequence Alignment</text>
    <text x="95" y="24" text-anchor="middle" font-family="system-ui,sans-serif" font-size="8.5" fill="#6366f1">Evolution's memory — 3.5 bn years of data</text>

    <line x1="95" y1="33" x2="95" y2="46" stroke="#334155" stroke-width="1.5" marker-end="url(#af-arr)"/>

    <rect x="10" y="48" width="170" height="32" rx="6" fill="rgba(163,135,255,0.2)" stroke="#a387ff" stroke-width="0.8"/>
    <text x="95" y="60" text-anchor="middle" font-family="system-ui,sans-serif" font-size="9.5" fill="#c4b5fd" font-weight="600">Evoformer / Diffusion Stack</text>
    <text x="95" y="72" text-anchor="middle" font-family="system-ui,sans-serif" font-size="8.5" fill="#7c3aed">48 transformer blocks · attention maps</text>

    <line x1="95" y1="81" x2="95" y2="94" stroke="#334155" stroke-width="1.5" marker-end="url(#af-arr)"/>

    <rect x="10" y="96" width="170" height="32" rx="6" fill="rgba(38,194,201,0.15)" stroke="#26c2c9" stroke-width="0.8"/>
    <text x="95" y="108" text-anchor="middle" font-family="system-ui,sans-serif" font-size="9.5" fill="#67e8f9" font-weight="600">Pairwise Distance Matrix</text>
    <text x="95" y="120" text-anchor="middle" font-family="system-ui,sans-serif" font-size="8.5" fill="#0891b2">residue–residue contact prediction</text>

    <line x1="95" y1="129" x2="95" y2="142" stroke="#334155" stroke-width="1.5" marker-end="url(#af-arr)"/>

    <rect x="10" y="144" width="170" height="32" rx="6" fill="rgba(196,61,98,0.2)" stroke="#c43d62" stroke-width="0.8"/>
    <text x="95" y="156" text-anchor="middle" font-family="system-ui,sans-serif" font-size="9.5" fill="#fb7185" font-weight="600">Structure Module</text>
    <text x="95" y="168" text-anchor="middle" font-family="system-ui,sans-serif" font-size="8.5" fill="#be185d">3D coordinate prediction · atomic resolution</text>

    <rect x="30" y="190" width="130" height="22" rx="5" fill="rgba(47,191,124,0.15)" stroke="#2fbf7c" stroke-width="0.8"/>
    <text x="95" y="205" text-anchor="middle" font-family="system-ui,sans-serif" font-size="9" fill="#4ade80" font-weight="600">pLDDT confidence score · 0–100</text>
  </g>

  <text x="360" y="355" text-anchor="middle" font-family="monospace" font-size="9.5" fill="#475569">Trained on PDB · 170,000 known structures</text>
  <text x="360" y="370" text-anchor="middle" font-family="monospace" font-size="9.5" fill="#475569">Inference: minutes · Lab: months–years</text>

  <!-- RIGHT PANEL: Output + Impact -->
  <rect x="500" y="72" width="190" height="290" rx="12" fill="rgba(255,255,255,0.03)" stroke="#1e293b" stroke-width="1.2"/>
  <text x="595" y="97" text-anchor="middle" font-family="system-ui,sans-serif" font-size="11" fill="#94a3b8" font-weight="600" letter-spacing="0.08em">OUTPUT &amp; IMPACT</text>
  <text x="595" y="113" text-anchor="middle" font-family="system-ui,sans-serif" font-size="12.5" fill="#e2e8f0" font-weight="700">Protein 3D Structure</text>

  <g transform="translate(510, 128)">
    <path d="M 20 20 C 20 10, 50 10, 50 20 C 50 30, 20 30, 20 40 C 20 50, 50 50, 50 60 C 50 70, 20 70, 20 80"
          fill="none" stroke="#c43d62" stroke-width="6" stroke-linecap="round" opacity="0.85" filter="url(#af-glow-soft)"/>
    <path d="M 65 15 L 65 45 L 80 45 L 70 60 L 80 60 L 65 75 L 65 105"
          fill="none" stroke="#5b6cff" stroke-width="4" stroke-linecap="round" opacity="0.8"/>
    <polygon points="55,42 75,42 65,55" fill="#5b6cff" opacity="0.75"/>
    <polygon points="55,72 75,72 65,85" fill="#5b6cff" opacity="0.65"/>
    <path d="M 50 60 C 58 65, 58 70, 65 75" fill="none" stroke="#26c2c9" stroke-width="2.5" stroke-dasharray="3 2" opacity="0.7"/>
    <path d="M 50 20 C 55 12, 60 12, 65 15" fill="none" stroke="#26c2c9" stroke-width="2.5" stroke-dasharray="3 2" opacity="0.7"/>
    <rect x="0" y="110" width="160" height="8" rx="4" fill="url(#conf-grad)"/>
  </g>

  <text x="515" y="252" font-family="system-ui,sans-serif" font-size="8" fill="#ef4444">Low</text>
  <text x="637" y="252" font-family="system-ui,sans-serif" font-size="8" fill="#22c55e" text-anchor="end">High confidence</text>

  <g transform="translate(510, 262)">
    <rect x="0" y="0" width="160" height="18" rx="4" fill="rgba(196,61,98,0.12)"/>
    <text x="80" y="13" text-anchor="middle" font-family="system-ui,sans-serif" font-size="9.5" fill="#fb7185" font-weight="600">200M+ structures in database</text>
    <rect x="0" y="22" width="160" height="18" rx="4" fill="rgba(91,108,255,0.12)"/>
    <text x="80" y="35" text-anchor="middle" font-family="system-ui,sans-serif" font-size="9.5" fill="#818cf8" font-weight="600">3M+ researchers · 190 countries</text>
    <rect x="0" y="44" width="160" height="18" rx="4" fill="rgba(38,194,201,0.12)"/>
    <text x="80" y="57" text-anchor="middle" font-family="system-ui,sans-serif" font-size="9.5" fill="#67e8f9" font-weight="600">35,000+ papers cite AlphaFold</text>
    <rect x="0" y="66" width="160" height="18" rx="4" fill="rgba(47,191,124,0.12)"/>
    <text x="80" y="79" text-anchor="middle" font-family="system-ui,sans-serif" font-size="9.5" fill="#4ade80" font-weight="600">Nobel Prize in Chemistry · 2024</text>
  </g>

  <!-- Arrows -->
  <line x1="222" y1="210" x2="252" y2="210" stroke="#c43d62" stroke-width="2" marker-end="url(#af-arr-pink)"/>
  <line x1="467" y1="210" x2="497" y2="210" stroke="#c43d62" stroke-width="2" marker-end="url(#af-arr-pink)"/>

  <!-- Footer -->
  <text x="360" y="398" text-anchor="middle" font-family="system-ui,sans-serif" font-size="10" fill="#334155">Based on Demis Hassabis · Google DeepMind · John Jumper · Nobel Laureate 2024</text>
</svg>
